<svg xmlns="http://www.w3.org/2000/svg" viewBox="0 0 512 512">
  <defs>
    <linearGradient id="bg" x1="0%" y1="0%" x2="100%" y2="100%">
      <stop offset="0%" style="stop-color:#FFB6C1"/>
      <stop offset="100%" style="stop-color:#FF91A4"/>
    </linearGradient>
  </defs>
  <!-- 背景圆 -->
  <circle cx="256" cy="256" r="240" fill="url(#bg)"/>
  <!-- 蛋糕主体 -->
  <rect x="156" y="240" width="200" height="100" rx="16" fill="#FFF5F5" stroke="#FFB6C1" stroke-width="4"/>
  <!-- 蛋糕上层 -->
  <rect x="176" y="190" width="160" height="60" rx="12" fill="#FFE4E8" stroke="#FFB6C1" stroke-width="4"/>
  <!-- 奶油裱花 -->
  <circle cx="210" cy="240" r="14" fill="#FFF0F3"/>
  <circle cx="256" cy="240" r="14" fill="#FFF0F3"/>
  <circle cx="302" cy="240" r="14" fill="#FFF0F3"/>
  <circle cx="233" cy="238" r="12" fill="white"/>
  <circle cx="279" cy="238" r="12" fill="white"/>
  <!-- 草莓 -->
  <circle cx="256" cy="180" r="22" fill="#FF4466"/>
  <circle cx="248" cy="174" r="4" fill="#FF8899"/>
  <circle cx="264" cy="178" r="4" fill="#FF8899"/>
  <circle cx="256" cy="170" r="3" fill="#FF8899"/>
  <!-- 草莓叶子 -->
  <ellipse cx="248" cy="164" rx="8" ry="4" fill="#4CAF50" transform="rotate(-20 248 164)"/>
  <ellipse cx="264" cy="164" rx="8" ry="4" fill="#4CAF50" transform="rotate(20 264 164)"/>
  <ellipse cx="256" cy="162" rx="6" ry="3" fill="#66BB6A"/>
  <!-- 盘子/底座 -->
  <ellipse cx="256" cy="348" rx="90" ry="16" fill="#FFE0E6" stroke="#FFD0D8" stroke-width="3"/>
  <!-- 爱心点缀 -->
  <text x="340" y="180" font-size="24" fill="#FF8899">♥</text>
  <text x="140" y="300" font-size="18" fill="#FFB6C1">♥</text>
  <text x="340" y="310" font-size="16" fill="#FFB6C1">♥</text>
  <!-- 闪光 -->
  <text x="120" y="190" font-size="20">✨</text>
  <text x="360" y="250" font-size="16">✨</text>
</svg>
